<svg width="100" height="100" viewBox="0 0 100 100" fill="none" xmlns="http://www.w3.org/2000/svg">
<rect width="100" height="100" fill="white"/>
<circle cx="7.81392" cy="7.81392" r="7.81392" transform="matrix(-1 0 0 1 71.2578 61.4141)" fill="url(#paint0_linear_2947_6071)"/>
<circle cx="7.81392" cy="7.81392" r="7.81392" transform="matrix(-1 0 0 1 49.6172 61.4141)" fill="url(#paint1_linear_2947_6071)"/>
<path fill-rule="evenodd" clip-rule="evenodd" d="M33.451 24.9421C32.8185 23.5439 31.4259 22.6455 29.8913 22.6455H21.5193C19.3615 22.6455 17.6123 24.3947 17.6123 26.5525C17.6123 28.7102 19.3615 30.4594 21.5193 30.4594H25.5046C26.6406 30.4594 27.6715 31.1245 28.1397 32.1596L31.634 39.8837C32.5233 41.8496 34.838 42.7224 36.804 41.833C38.7699 40.9437 39.6427 38.629 38.7533 36.663L33.451 24.9421Z" fill="url(#paint2_linear_2947_6071)"/>
<g filter="url(#filter0_bdii_2947_6071)">
<path d="M80.9691 37.965C81.5277 35.8424 79.9267 33.7656 77.7318 33.7656H26.9106C24.7157 33.7656 23.1147 35.8424 23.6733 37.965L30.9275 65.5311C31.3145 67.0017 32.6441 68.0267 34.1648 68.0267H70.4776C71.9983 68.0267 73.3279 67.0017 73.7149 65.5311L80.9691 37.965Z" fill="#2B66FF" fill-opacity="0.2" shape-rendering="crispEdges"/>
<path d="M80.7668 37.9118C81.2904 35.9219 79.7895 33.9748 77.7318 33.9748H26.9106C24.8529 33.9748 23.352 35.9219 23.8756 37.9118L31.1299 65.4778C31.4927 66.8565 32.7392 67.8175 34.1648 67.8175H70.4776C71.9032 67.8175 73.1497 66.8565 73.5126 65.4778L80.7668 37.9118Z" stroke="url(#paint3_linear_2947_6071)" stroke-width="0.418437" stroke-miterlimit="2.41327" shape-rendering="crispEdges"/>
</g>
<defs>
<filter id="filter0_bdii_2947_6071" x="11.0074" y="21.2125" width="82.6277" height="59.3675" filterUnits="userSpaceOnUse" color-interpolation-filters="sRGB">
<feFlood flood-opacity="0" result="BackgroundImageFix"/>
<feGaussianBlur in="BackgroundImageFix" stdDeviation="6.27656"/>
<feComposite in2="SourceAlpha" operator="in" result="effect1_backgroundBlur_2947_6071"/>
<feColorMatrix in="SourceAlpha" type="matrix" values="0 0 0 0 0 0 0 0 0 0 0 0 0 0 0 0 0 0 127 0" result="hardAlpha"/>
<feOffset dx="1.67375" dy="-1.67375"/>
<feGaussianBlur stdDeviation="5.02125"/>
<feComposite in2="hardAlpha" operator="out"/>
<feColorMatrix type="matrix" values="0 0 0 0 0 0 0 0 0 0.819608 0 0 0 0 1 0 0 0 0.25 0"/>
<feBlend mode="color-burn" in2="effect1_backgroundBlur_2947_6071" result="effect2_dropShadow_2947_6071"/>
<feBlend mode="normal" in="SourceGraphic" in2="effect2_dropShadow_2947_6071" result="shape"/>
<feColorMatrix in="SourceAlpha" type="matrix" values="0 0 0 0 0 0 0 0 0 0 0 0 0 0 0 0 0 0 127 0" result="hardAlpha"/>
<feOffset dy="-1.67375"/>
<feGaussianBlur stdDeviation="4.18437"/>
<feComposite in2="hardAlpha" operator="arithmetic" k2="-1" k3="1"/>
<feColorMatrix type="matrix" values="0 0 0 0 0 0 0 0 0 0.64 0 0 0 0 1 0 0 0 0.25 0"/>
<feBlend mode="normal" in2="shape" result="effect3_innerShadow_2947_6071"/>
<feColorMatrix in="SourceAlpha" type="matrix" values="0 0 0 0 0 0 0 0 0 0 0 0 0 0 0 0 0 0 127 0" result="hardAlpha"/>
<feOffset dx="-1.67375" dy="1.67375"/>
<feGaussianBlur stdDeviation="4.18437"/>
<feComposite in2="hardAlpha" operator="arithmetic" k2="-1" k3="1"/>
<feColorMatrix type="matrix" values="0 0 0 0 1 0 0 0 0 1 0 0 0 0 1 0 0 0 0.3 0"/>
<feBlend mode="normal" in2="effect3_innerShadow_2947_6071" result="effect4_innerShadow_2947_6071"/>
</filter>
<linearGradient id="paint0_linear_2947_6071" x1="-0.520928" y1="13.7467" x2="14.1111" y2="5.17457" gradientUnits="userSpaceOnUse">
<stop stop-color="#2DC0FF"/>
<stop offset="0.989583" stop-color="#1142A0"/>
</linearGradient>
<linearGradient id="paint1_linear_2947_6071" x1="-0.520928" y1="13.7467" x2="14.1111" y2="5.17457" gradientUnits="userSpaceOnUse">
<stop stop-color="#2DC0FF"/>
<stop offset="0.989583" stop-color="#1142A0"/>
</linearGradient>
<linearGradient id="paint2_linear_2947_6071" x1="39.8179" y1="39.8297" x2="20.7226" y2="27.5241" gradientUnits="userSpaceOnUse">
<stop stop-color="#2DC0FF"/>
<stop offset="0.989583" stop-color="#1142A0"/>
</linearGradient>
<linearGradient id="paint3_linear_2947_6071" x1="52.3212" y1="33.7656" x2="52.3212" y2="68.0267" gradientUnits="userSpaceOnUse">
<stop stop-color="white" stop-opacity="0.2"/>
<stop offset="1" stop-color="white"/>
</linearGradient>
</defs>
</svg>
