<svg width="100" height="100" viewBox="0 0 100 100" fill="none" xmlns="http://www.w3.org/2000/svg">
<rect width="100" height="100" fill="white"/>
<path d="M35.5841 32.764L47.7444 28.2259C49.0047 27.7632 51.0609 27.7632 52.3211 28.2259L64.4815 32.764C66.8251 33.6452 68.7266 36.377 68.7266 38.8663L68.7266 56.7106C68.7266 58.495 67.5547 60.8522 66.1176 61.9096L53.9573 70.9639C51.8126 72.5721 48.2972 72.5721 46.1525 70.9639L33.9922 61.9096C32.555 60.8302 31.3832 58.495 31.3832 56.7106L31.3832 38.8663C31.3611 36.3769 33.2625 33.6452 35.5841 32.764Z" fill="url(#paint0_linear_2947_6153)"/>
<g clip-path="url(#clip0_2947_6153)">
<g filter="url(#filter0_bdii_2947_6153)">
<path d="M67.51 55.9521H62.6766C62.0345 55.9522 61.3953 56.0378 60.7758 56.2067C60.1715 55.015 59.249 54.0138 58.1106 53.314C56.9722 52.6143 55.6624 52.2433 54.3262 52.2422H45.7828C44.4466 52.2433 43.1367 52.6143 41.9984 53.314C40.86 54.0138 39.9375 55.015 39.3331 56.2067C38.7137 56.0378 38.0745 55.9522 37.4324 55.9521H32.5999C30.6823 55.9541 28.8438 56.7168 27.4879 58.0728C26.1319 59.4287 25.3692 61.2672 25.3672 63.1849V70.9114C25.3672 72.0623 25.8244 73.1661 26.6382 73.98C27.4521 74.7938 28.5559 75.251 29.7068 75.251H70.4031C71.5537 75.2497 72.6567 74.7921 73.4703 73.9786C74.2839 73.165 74.7415 72.0619 74.7428 70.9114V63.1849C74.7405 61.2673 73.9777 59.429 72.6218 58.0731C71.2659 56.7172 69.4276 55.9544 67.51 55.9521Z" fill="#2B66FF" fill-opacity="0.2" shape-rendering="crispEdges"/>
<path d="M60.5892 56.3013L60.6664 56.4534L60.8309 56.4085C61.4324 56.2445 62.0531 56.1614 62.6766 56.1613H67.5098C69.3719 56.1636 71.1571 56.9043 72.4739 58.221C73.7906 59.5377 74.5313 61.323 74.5336 63.1851V70.9111C74.5323 72.0063 74.0968 73.0562 73.3224 73.8306C72.548 74.605 71.498 75.0406 70.4029 75.0418H29.7068C28.6114 75.0418 27.5608 74.6066 26.7862 73.832C26.0116 73.0574 25.5764 72.0068 25.5764 70.9114V63.185C25.5784 61.3228 26.3191 59.5375 27.6358 58.2207C28.9526 56.9039 30.738 56.1633 32.6002 56.1613H37.4324C37.4324 56.1613 37.4324 56.1613 37.4324 56.1613C38.0559 56.1614 38.6766 56.2445 39.2781 56.4085L39.4426 56.4534L39.5197 56.3013C40.1067 55.144 41.0025 54.1718 42.1079 53.4923C43.2134 52.8128 44.4854 52.4525 45.783 52.4514L54.3261 52.4514C55.6237 52.4525 56.8956 52.8128 58.0011 53.4923C59.1065 54.1718 60.0023 55.144 60.5892 56.3013Z" stroke="url(#paint1_linear_2947_6153)" stroke-width="0.418437" stroke-miterlimit="2.41327" shape-rendering="crispEdges"/>
</g>
<g filter="url(#filter1_bii_2947_6153)">
<path d="M67.7537 53.2383C69.1717 53.2362 70.5309 52.6718 71.5334 51.669C72.5359 50.6662 73.0999 49.3068 73.1016 47.8889C73.0999 46.4707 72.5357 45.1111 71.5328 44.1084C70.53 43.1057 69.1703 42.5417 67.7521 42.5402C66.3341 42.5419 64.9747 43.106 63.972 44.1087C62.9693 45.1114 62.4052 46.4708 62.4035 47.8889C62.405 49.3073 62.9692 50.6672 63.9723 51.6701C64.9753 52.673 66.3353 53.237 67.7537 53.2383Z" fill="#2B66FF" fill-opacity="0.2"/>
<path d="M71.1784 51.3141C70.27 52.2227 69.0384 52.7341 67.7536 52.7362C66.4684 52.7349 65.2361 52.2238 64.3272 51.3151C63.4184 50.4063 62.9071 49.1742 62.9056 47.8889C62.9073 46.6041 63.4184 45.3723 64.327 44.4637C65.2356 43.5552 66.4673 43.044 67.7522 43.0423C69.0372 43.0438 70.2691 43.5549 71.1778 44.4635C72.0865 45.372 72.5978 46.6039 72.5995 47.8889C72.5978 49.1737 72.0868 50.4054 71.1784 51.3141Z" stroke="url(#paint2_linear_2947_6153)" stroke-width="1.00414" stroke-miterlimit="2.41327"/>
</g>
<g filter="url(#filter2_bii_2947_6153)">
<path d="M34.0116 53.2383C35.4295 53.2362 36.7888 52.6718 37.7913 51.669C38.7938 50.6662 39.3577 49.3068 39.3594 47.8889C39.3577 46.4707 38.7935 45.1111 37.7906 44.1084C36.7878 43.1057 35.4281 42.5417 34.01 42.5402C32.5919 42.5419 31.2325 43.106 30.2298 44.1087C29.2271 45.1114 28.663 46.4708 28.6613 47.8889C28.6628 49.3073 29.227 50.6672 30.2301 51.6701C31.2331 52.673 32.5931 53.237 34.0116 53.2383Z" fill="#2B66FF" fill-opacity="0.2"/>
<path d="M37.4362 51.3141C36.5278 52.2227 35.2962 52.7341 34.0114 52.7362C32.7262 52.7349 31.4939 52.2238 30.5851 51.3151C29.6762 50.4063 29.1649 49.1742 29.1634 47.8889C29.1651 46.6041 29.6762 45.3723 30.5848 44.4637C31.4934 43.5552 32.7251 43.044 34.01 43.0423C35.295 43.0438 36.5269 43.5549 37.4356 44.4635C38.3443 45.372 38.8556 46.6039 38.8573 47.8889C38.8556 49.1737 38.3446 50.4054 37.4362 51.3141Z" stroke="url(#paint3_linear_2947_6153)" stroke-width="1.00414" stroke-miterlimit="2.41327"/>
</g>
<g filter="url(#filter3_bii_2947_6153)">
<path d="M54.0094 49.0863C55.8258 48.034 57.151 46.3045 57.6943 44.2768C58.2376 42.2491 57.9548 40.0887 56.9078 38.2691C55.8554 36.4529 54.1258 35.1279 52.0982 34.5846C50.0706 34.0413 47.9102 34.3239 46.0906 35.3707C44.2742 36.4229 42.949 38.1525 42.4057 40.1802C41.8624 42.2079 42.1452 44.3683 43.1922 46.1879C44.2445 48.0043 45.974 49.3295 48.0017 49.8728C50.0294 50.4161 52.1898 50.1333 54.0094 49.0863Z" fill="#2B66FF" fill-opacity="0.2"/>
<path d="M57.2093 44.1468C56.7005 46.0459 55.4595 47.6658 53.7583 48.6515C52.0541 49.6319 50.0308 49.8967 48.1317 49.3878C46.2326 48.879 44.6127 47.638 43.627 45.9368C42.6466 44.2326 42.3818 42.2093 42.8907 40.3102C43.3995 38.4111 44.6405 36.7912 46.3416 35.8055C48.0459 34.8253 50.0692 34.5607 51.9682 35.0695C53.8673 35.5784 55.4872 36.8192 56.473 38.5202C57.4534 40.2244 57.7182 42.2477 57.2093 44.1468Z" stroke="url(#paint4_linear_2947_6153)" stroke-width="1.00414" stroke-miterlimit="2.41327"/>
</g>
</g>
<defs>
<filter id="filter0_bdii_2947_6153" x="12.8141" y="39.6891" width="74.4812" height="48.115" filterUnits="userSpaceOnUse" color-interpolation-filters="sRGB">
<feFlood flood-opacity="0" result="BackgroundImageFix"/>
<feGaussianBlur in="BackgroundImageFix" stdDeviation="6.27656"/>
<feComposite in2="SourceAlpha" operator="in" result="effect1_backgroundBlur_2947_6153"/>
<feColorMatrix in="SourceAlpha" type="matrix" values="0 0 0 0 0 0 0 0 0 0 0 0 0 0 0 0 0 0 127 0" result="hardAlpha"/>
<feOffset dx="1.67375" dy="-1.67375"/>
<feGaussianBlur stdDeviation="5.02125"/>
<feComposite in2="hardAlpha" operator="out"/>
<feColorMatrix type="matrix" values="0 0 0 0 0 0 0 0 0 0.819608 0 0 0 0 1 0 0 0 0.25 0"/>
<feBlend mode="color-burn" in2="effect1_backgroundBlur_2947_6153" result="effect2_dropShadow_2947_6153"/>
<feBlend mode="normal" in="SourceGraphic" in2="effect2_dropShadow_2947_6153" result="shape"/>
<feColorMatrix in="SourceAlpha" type="matrix" values="0 0 0 0 0 0 0 0 0 0 0 0 0 0 0 0 0 0 127 0" result="hardAlpha"/>
<feOffset dy="-1.67375"/>
<feGaussianBlur stdDeviation="4.18437"/>
<feComposite in2="hardAlpha" operator="arithmetic" k2="-1" k3="1"/>
<feColorMatrix type="matrix" values="0 0 0 0 0 0 0 0 0 0.64 0 0 0 0 1 0 0 0 0.25 0"/>
<feBlend mode="normal" in2="shape" result="effect3_innerShadow_2947_6153"/>
<feColorMatrix in="SourceAlpha" type="matrix" values="0 0 0 0 0 0 0 0 0 0 0 0 0 0 0 0 0 0 127 0" result="hardAlpha"/>
<feOffset dx="-1.67375" dy="1.67375"/>
<feGaussianBlur stdDeviation="4.18437"/>
<feComposite in2="hardAlpha" operator="arithmetic" k2="-1" k3="1"/>
<feColorMatrix type="matrix" values="0 0 0 0 1 0 0 0 0 1 0 0 0 0 1 0 0 0 0.3 0"/>
<feBlend mode="normal" in2="effect3_innerShadow_2947_6153" result="effect4_innerShadow_2947_6153"/>
</filter>
<filter id="filter1_bii_2947_6153" x="32.28" y="12.4158" width="70.9458" height="70.9468" filterUnits="userSpaceOnUse" color-interpolation-filters="sRGB">
<feFlood flood-opacity="0" result="BackgroundImageFix"/>
<feGaussianBlur in="BackgroundImageFix" stdDeviation="15.0621"/>
<feComposite in2="SourceAlpha" operator="in" result="effect1_backgroundBlur_2947_6153"/>
<feBlend mode="normal" in="SourceGraphic" in2="effect1_backgroundBlur_2947_6153" result="shape"/>
<feColorMatrix in="SourceAlpha" type="matrix" values="0 0 0 0 0 0 0 0 0 0 0 0 0 0 0 0 0 0 127 0" result="hardAlpha"/>
<feOffset dy="-4.01657"/>
<feGaussianBlur stdDeviation="10.0414"/>
<feComposite in2="hardAlpha" operator="arithmetic" k2="-1" k3="1"/>
<feColorMatrix type="matrix" values="0 0 0 0 0 0 0 0 0 0.64 0 0 0 0 1 0 0 0 0.25 0"/>
<feBlend mode="normal" in2="shape" result="effect2_innerShadow_2947_6153"/>
<feColorMatrix in="SourceAlpha" type="matrix" values="0 0 0 0 0 0 0 0 0 0 0 0 0 0 0 0 0 0 127 0" result="hardAlpha"/>
<feOffset dx="-4.01657" dy="4.01657"/>
<feGaussianBlur stdDeviation="10.0414"/>
<feComposite in2="hardAlpha" operator="arithmetic" k2="-1" k3="1"/>
<feColorMatrix type="matrix" values="0 0 0 0 1 0 0 0 0 1 0 0 0 0 1 0 0 0 0.3 0"/>
<feBlend mode="normal" in2="effect2_innerShadow_2947_6153" result="effect3_innerShadow_2947_6153"/>
</filter>
<filter id="filter2_bii_2947_6153" x="-1.46216" y="12.4158" width="70.9458" height="70.9468" filterUnits="userSpaceOnUse" color-interpolation-filters="sRGB">
<feFlood flood-opacity="0" result="BackgroundImageFix"/>
<feGaussianBlur in="BackgroundImageFix" stdDeviation="15.0621"/>
<feComposite in2="SourceAlpha" operator="in" result="effect1_backgroundBlur_2947_6153"/>
<feBlend mode="normal" in="SourceGraphic" in2="effect1_backgroundBlur_2947_6153" result="shape"/>
<feColorMatrix in="SourceAlpha" type="matrix" values="0 0 0 0 0 0 0 0 0 0 0 0 0 0 0 0 0 0 127 0" result="hardAlpha"/>
<feOffset dy="-4.01657"/>
<feGaussianBlur stdDeviation="10.0414"/>
<feComposite in2="hardAlpha" operator="arithmetic" k2="-1" k3="1"/>
<feColorMatrix type="matrix" values="0 0 0 0 0 0 0 0 0 0.64 0 0 0 0 1 0 0 0 0.25 0"/>
<feBlend mode="normal" in2="shape" result="effect2_innerShadow_2947_6153"/>
<feColorMatrix in="SourceAlpha" type="matrix" values="0 0 0 0 0 0 0 0 0 0 0 0 0 0 0 0 0 0 127 0" result="hardAlpha"/>
<feOffset dx="-4.01657" dy="4.01657"/>
<feGaussianBlur stdDeviation="10.0414"/>
<feComposite in2="hardAlpha" operator="arithmetic" k2="-1" k3="1"/>
<feColorMatrix type="matrix" values="0 0 0 0 1 0 0 0 0 1 0 0 0 0 1 0 0 0 0.3 0"/>
<feBlend mode="normal" in2="effect2_innerShadow_2947_6153" result="effect3_innerShadow_2947_6153"/>
</filter>
<filter id="filter3_bii_2947_6153" x="12.0105" y="4.19018" width="76.0786" height="76.0767" filterUnits="userSpaceOnUse" color-interpolation-filters="sRGB">
<feFlood flood-opacity="0" result="BackgroundImageFix"/>
<feGaussianBlur in="BackgroundImageFix" stdDeviation="15.0621"/>
<feComposite in2="SourceAlpha" operator="in" result="effect1_backgroundBlur_2947_6153"/>
<feBlend mode="normal" in="SourceGraphic" in2="effect1_backgroundBlur_2947_6153" result="shape"/>
<feColorMatrix in="SourceAlpha" type="matrix" values="0 0 0 0 0 0 0 0 0 0 0 0 0 0 0 0 0 0 127 0" result="hardAlpha"/>
<feOffset dy="-4.01657"/>
<feGaussianBlur stdDeviation="10.0414"/>
<feComposite in2="hardAlpha" operator="arithmetic" k2="-1" k3="1"/>
<feColorMatrix type="matrix" values="0 0 0 0 0 0 0 0 0 0.64 0 0 0 0 1 0 0 0 0.25 0"/>
<feBlend mode="normal" in2="shape" result="effect2_innerShadow_2947_6153"/>
<feColorMatrix in="SourceAlpha" type="matrix" values="0 0 0 0 0 0 0 0 0 0 0 0 0 0 0 0 0 0 127 0" result="hardAlpha"/>
<feOffset dx="-4.01657" dy="4.01657"/>
<feGaussianBlur stdDeviation="10.0414"/>
<feComposite in2="hardAlpha" operator="arithmetic" k2="-1" k3="1"/>
<feColorMatrix type="matrix" values="0 0 0 0 1 0 0 0 0 1 0 0 0 0 1 0 0 0 0.3 0"/>
<feBlend mode="normal" in2="effect2_innerShadow_2947_6153" result="effect3_innerShadow_2947_6153"/>
</filter>
<linearGradient id="paint0_linear_2947_6153" x1="69.9713" y1="66.8387" x2="32.2184" y2="48.1906" gradientUnits="userSpaceOnUse">
<stop stop-color="#2DC0FF"/>
<stop offset="0.989583" stop-color="#1142A0"/>
</linearGradient>
<linearGradient id="paint1_linear_2947_6153" x1="50.055" y1="52.2422" x2="50.055" y2="75.251" gradientUnits="userSpaceOnUse">
<stop stop-color="white" stop-opacity="0.2"/>
<stop offset="1" stop-color="white"/>
</linearGradient>
<linearGradient id="paint2_linear_2947_6153" x1="67.7525" y1="53.2383" x2="67.7525" y2="42.5402" gradientUnits="userSpaceOnUse">
<stop stop-color="white" stop-opacity="0.2"/>
<stop offset="1" stop-color="white"/>
</linearGradient>
<linearGradient id="paint3_linear_2947_6153" x1="34.0104" y1="53.2383" x2="34.0104" y2="42.5402" gradientUnits="userSpaceOnUse">
<stop stop-color="white" stop-opacity="0.2"/>
<stop offset="1" stop-color="white"/>
</linearGradient>
<linearGradient id="paint4_linear_2947_6153" x1="54.0094" y1="49.0863" x2="46.0906" y2="35.3707" gradientUnits="userSpaceOnUse">
<stop stop-color="white" stop-opacity="0.2"/>
<stop offset="1" stop-color="white"/>
</linearGradient>
<clipPath id="clip0_2947_6153">
<rect width="49.3756" height="40.9412" fill="white" transform="translate(25.3672 34.3096)"/>
</clipPath>
</defs>
</svg>
