<svg width="100" height="100" viewBox="0 0 100 100" fill="none" xmlns="http://www.w3.org/2000/svg">
<path d="M72.1739 27.5543C61.8488 27.5543 51.1318 18.0379 51.0338 17.9527C50.6946 17.6583 50.2595 17.4961 49.809 17.4961C49.3586 17.4961 48.9235 17.6583 48.5842 17.9527C48.474 18.0501 37.7938 27.5543 27.432 27.5543C26.9371 27.5575 26.4636 27.7551 26.1148 28.1039C25.766 28.4527 25.5703 28.9244 25.5703 29.4161V51.6249C25.5703 69.6231 39.0431 76.8152 49.1722 80.6485C49.6023 80.8102 50.0771 80.8102 50.5072 80.6485C64.7148 75.2697 74.109 66.8607 74.109 51.6249V29.4161C74.1092 29.1664 74.0588 28.9192 73.9608 28.6892C73.8628 28.4593 73.7193 28.2513 73.5387 28.0776C73.3582 27.9039 73.1443 27.7681 72.9098 27.6781C72.6753 27.5882 72.425 27.5461 72.1739 27.5543Z" fill="url(#paint0_linear_2947_6145)"/>
<g filter="url(#filter0_bdii_2947_6145)">
<path d="M67.3905 32.2833C59.278 32.2833 50.8575 24.8528 50.7805 24.7862C50.514 24.5563 50.1721 24.4297 49.8182 24.4297C49.4642 24.4297 49.1223 24.5563 48.8558 24.7862C48.7692 24.8623 40.3776 32.2833 32.2362 32.2833C31.8474 32.2858 31.4753 32.4401 31.2013 32.7125C30.9272 32.9849 30.7734 33.3532 30.7734 33.7371V51.0782C30.7734 65.1316 41.3592 70.7473 49.3177 73.7405C49.6557 73.8667 50.0287 73.8667 50.3667 73.7405C61.5299 69.5406 68.911 62.9747 68.911 51.0782V33.7371C68.9111 33.5421 68.8715 33.3491 68.7945 33.1695C68.7175 32.99 68.6048 32.8276 68.4629 32.692C68.321 32.5563 68.153 32.4503 67.9688 32.3801C67.7845 32.3099 67.5879 32.2769 67.3905 32.2833Z" fill="#B2C7FF" fill-opacity="0.2" shape-rendering="crispEdges"/>
<path d="M67.3905 32.4926V32.4925C63.2772 32.4925 59.1042 30.6116 55.965 28.7394C54.3923 27.8015 53.0724 26.8617 52.1407 26.1522C51.6748 25.7973 51.3056 25.4999 51.0503 25.2887C50.9226 25.1832 50.8233 25.0992 50.7546 25.0404C50.7202 25.011 50.6935 24.9879 50.6747 24.9716L50.6526 24.9523L50.6462 24.9467L50.6443 24.9451L50.6438 24.9447L67.3905 32.4926ZM67.3905 32.4926L67.3973 32.4924M67.3905 32.4926L67.3973 32.4924M67.3973 32.4924C67.567 32.487 67.736 32.5152 67.8942 32.5756C68.0525 32.6359 68.1967 32.7269 68.3183 32.8432C68.4399 32.9594 68.5364 33.0985 68.6022 33.252C68.6681 33.4055 68.7019 33.5704 68.7018 33.737V33.7371M67.3973 32.4924L68.7018 33.7371M68.7018 33.7371V51.0782C68.7018 56.9784 66.8733 61.5437 63.6685 65.1567C60.4591 68.775 55.8578 71.451 50.293 73.5446C50.0025 73.6531 49.6817 73.653 49.3912 73.5445C45.4205 72.0512 40.8169 69.9113 37.2069 66.4068C33.6034 62.9088 30.9827 58.0446 30.9827 51.0782V33.7371C30.9826 33.4093 31.1139 33.0943 31.3488 32.8609C31.5835 32.6276 31.9027 32.4949 32.2368 32.4925C36.3642 32.4923 40.5369 30.614 43.6737 28.743C46.7831 26.8884 48.9017 25.0245 48.9917 24.9454L48.9925 24.9447C48.9927 24.9444 48.993 24.9442 48.9932 24.944C49.2214 24.7475 49.5144 24.6389 49.8182 24.6389C50.1221 24.6389 50.4154 24.7477 50.6437 24.9446L68.7018 33.7371Z" stroke="url(#paint1_linear_2947_6145)" stroke-width="0.418437" stroke-miterlimit="2.41327" shape-rendering="crispEdges"/>
</g>
<mask id="mask0_2947_6145" style="mask-type:alpha" maskUnits="userSpaceOnUse" x="35" y="34" width="31" height="31">
<rect x="35.1016" y="34.8311" width="29.9169" height="29.9169" fill="#D9D9D9"/>
</mask>
<g mask="url(#mask0_2947_6145)">
<path d="M48.1911 56.0874C47.5375 56.741 46.4777 56.741 45.8241 56.0874L40.7905 51.0538C40.3 50.5632 40.3 49.768 40.7905 49.2774C41.281 48.7869 42.0763 48.7869 42.5668 49.2774L47.0076 53.7182L57.5564 43.1694C58.047 42.6789 58.8422 42.6789 59.3328 43.1694C59.8233 43.6599 59.8233 44.4552 59.3328 44.9457L48.1911 56.0874Z" fill="white" fill-opacity="0.8"/>
</g>
<defs>
<filter id="filter0_bdii_2947_6145" x="18.2203" y="11.8766" width="63.2429" height="74.5115" filterUnits="userSpaceOnUse" color-interpolation-filters="sRGB">
<feFlood flood-opacity="0" result="BackgroundImageFix"/>
<feGaussianBlur in="BackgroundImageFix" stdDeviation="6.27656"/>
<feComposite in2="SourceAlpha" operator="in" result="effect1_backgroundBlur_2947_6145"/>
<feColorMatrix in="SourceAlpha" type="matrix" values="0 0 0 0 0 0 0 0 0 0 0 0 0 0 0 0 0 0 127 0" result="hardAlpha"/>
<feOffset dx="1.67375" dy="-1.67375"/>
<feGaussianBlur stdDeviation="5.02125"/>
<feComposite in2="hardAlpha" operator="out"/>
<feColorMatrix type="matrix" values="0 0 0 0 0 0 0 0 0 0.819608 0 0 0 0 1 0 0 0 0.25 0"/>
<feBlend mode="color-burn" in2="effect1_backgroundBlur_2947_6145" result="effect2_dropShadow_2947_6145"/>
<feBlend mode="normal" in="SourceGraphic" in2="effect2_dropShadow_2947_6145" result="shape"/>
<feColorMatrix in="SourceAlpha" type="matrix" values="0 0 0 0 0 0 0 0 0 0 0 0 0 0 0 0 0 0 127 0" result="hardAlpha"/>
<feOffset dy="-1.67375"/>
<feGaussianBlur stdDeviation="4.18437"/>
<feComposite in2="hardAlpha" operator="arithmetic" k2="-1" k3="1"/>
<feColorMatrix type="matrix" values="0 0 0 0 0 0 0 0 0 0.64 0 0 0 0 1 0 0 0 0.25 0"/>
<feBlend mode="normal" in2="shape" result="effect3_innerShadow_2947_6145"/>
<feColorMatrix in="SourceAlpha" type="matrix" values="0 0 0 0 0 0 0 0 0 0 0 0 0 0 0 0 0 0 127 0" result="hardAlpha"/>
<feOffset dx="-1.67375" dy="1.67375"/>
<feGaussianBlur stdDeviation="4.18437"/>
<feComposite in2="hardAlpha" operator="arithmetic" k2="-1" k3="1"/>
<feColorMatrix type="matrix" values="0 0 0 0 1 0 0 0 0 1 0 0 0 0 1 0 0 0 0.3 0"/>
<feBlend mode="normal" in2="effect3_innerShadow_2947_6145" result="effect4_innerShadow_2947_6145"/>
</filter>
<linearGradient id="paint0_linear_2947_6145" x1="23.9524" y1="73.1535" x2="74.7383" y2="50.3294" gradientUnits="userSpaceOnUse">
<stop stop-color="#2DC0FF"/>
<stop offset="0.989583" stop-color="#1142A0"/>
</linearGradient>
<linearGradient id="paint1_linear_2947_6145" x1="49.8422" y1="24.4297" x2="49.8422" y2="73.8352" gradientUnits="userSpaceOnUse">
<stop stop-color="white" stop-opacity="0.2"/>
<stop offset="1" stop-color="white"/>
</linearGradient>
</defs>
</svg>
