<svg width="100" height="100" viewBox="0 0 100 100" fill="none" xmlns="http://www.w3.org/2000/svg">
<path d="M89.674 80.7258C91.3081 82.3599 91.3081 85.0093 89.674 86.6434L87.5886 88.7288C85.9545 90.3629 83.3051 90.3629 81.671 88.7288L52.8912 59.9489L60.8942 51.9459L89.674 80.7258Z" fill="url(#paint0_linear_2947_6086)"/>
<path d="M26.306 62.9318C16.1933 52.8191 16.1933 36.4231 26.306 26.3103C36.4188 16.1976 52.8148 16.1976 62.9275 26.3103C73.0403 36.4231 73.0403 52.8191 62.9275 62.9318C52.8148 73.0446 36.4188 73.0446 26.306 62.9318ZM56.7353 32.5025C50.0424 25.8096 39.1911 25.8096 32.4982 32.5025C25.8053 39.1954 25.8053 50.0468 32.4982 56.7397C39.1911 63.4326 50.0424 63.4326 56.7353 56.7397C63.4282 50.0468 63.4282 39.1954 56.7353 32.5025Z" fill="url(#paint1_linear_2947_6086)"/>
<g filter="url(#filter0_bdii_2947_6086)">
<circle cx="44.6162" cy="44.6211" r="20.1408" transform="rotate(-45 44.6162 44.6211)" fill="#6F97FF" fill-opacity="0.2" shape-rendering="crispEdges"/>
<circle cx="44.6162" cy="44.6211" r="20.0935" transform="rotate(-45 44.6162 44.6211)" stroke="url(#paint2_linear_2947_6086)" stroke-width="0.0946399" stroke-miterlimit="2.41327" shape-rendering="crispEdges"/>
</g>
<defs>
<filter id="filter0_bdii_2947_6086" x="22.4996" y="21.8306" width="44.9081" height="44.9062" filterUnits="userSpaceOnUse" color-interpolation-filters="sRGB">
<feFlood flood-opacity="0" result="BackgroundImageFix"/>
<feGaussianBlur in="BackgroundImageFix" stdDeviation="0.987512"/>
<feComposite in2="SourceAlpha" operator="in" result="effect1_backgroundBlur_2947_6086"/>
<feColorMatrix in="SourceAlpha" type="matrix" values="0 0 0 0 0 0 0 0 0 0 0 0 0 0 0 0 0 0 127 0" result="hardAlpha"/>
<feOffset dx="0.37856" dy="-0.37856"/>
<feGaussianBlur stdDeviation="1.13568"/>
<feComposite in2="hardAlpha" operator="out"/>
<feColorMatrix type="matrix" values="0 0 0 0 0 0 0 0 0 0.819608 0 0 0 0 1 0 0 0 0.25 0"/>
<feBlend mode="color-burn" in2="effect1_backgroundBlur_2947_6086" result="effect2_dropShadow_2947_6086"/>
<feBlend mode="normal" in="SourceGraphic" in2="effect2_dropShadow_2947_6086" result="shape"/>
<feColorMatrix in="SourceAlpha" type="matrix" values="0 0 0 0 0 0 0 0 0 0 0 0 0 0 0 0 0 0 127 0" result="hardAlpha"/>
<feOffset dy="-0.37856"/>
<feGaussianBlur stdDeviation="0.946399"/>
<feComposite in2="hardAlpha" operator="arithmetic" k2="-1" k3="1"/>
<feColorMatrix type="matrix" values="0 0 0 0 0 0 0 0 0 0.64 0 0 0 0 1 0 0 0 0.25 0"/>
<feBlend mode="normal" in2="shape" result="effect3_innerShadow_2947_6086"/>
<feColorMatrix in="SourceAlpha" type="matrix" values="0 0 0 0 0 0 0 0 0 0 0 0 0 0 0 0 0 0 127 0" result="hardAlpha"/>
<feOffset dx="-0.37856" dy="0.37856"/>
<feGaussianBlur stdDeviation="0.946399"/>
<feComposite in2="hardAlpha" operator="arithmetic" k2="-1" k3="1"/>
<feColorMatrix type="matrix" values="0 0 0 0 1 0 0 0 0 1 0 0 0 0 1 0 0 0 0.3 0"/>
<feBlend mode="normal" in2="effect3_innerShadow_2947_6086" result="effect4_innerShadow_2947_6086"/>
</filter>
<linearGradient id="paint0_linear_2947_6086" x1="64.9813" y1="55.4996" x2="56.5866" y2="66.8045" gradientUnits="userSpaceOnUse">
<stop stop-color="#2DC0FF"/>
<stop offset="0.989583" stop-color="#1142A0"/>
</linearGradient>
<linearGradient id="paint1_linear_2947_6086" x1="50.2456" y1="11.187" x2="36.0453" y2="65.5624" gradientUnits="userSpaceOnUse">
<stop stop-color="#2DC0FF"/>
<stop offset="0.989583" stop-color="#1142A0"/>
</linearGradient>
<linearGradient id="paint2_linear_2947_6086" x1="44.6162" y1="24.4803" x2="44.6162" y2="64.7619" gradientUnits="userSpaceOnUse">
<stop stop-color="white" stop-opacity="0.2"/>
<stop offset="1" stop-color="white"/>
</linearGradient>
</defs>
</svg>
