<svg width="16" height="16" viewBox="0 0 16 16" fill="none" xmlns="http://www.w3.org/2000/svg">
<g opacity="0.8">
<path d="M15.4006 3.93042L7.99504 11.3367L0.589442 3.93042C0.451285 3.79696 0.231088 3.80081 0.0976262 3.93896C-0.0325421 4.07376 -0.0325421 4.28744 0.0976262 4.4222L7.74948 12.0741C7.88529 12.2098 8.10545 12.2098 8.24129 12.0741L15.8931 4.4222C16.0313 4.28874 16.0351 4.06858 15.9017 3.93039C15.7682 3.79223 15.5481 3.78842 15.4099 3.92184C15.407 3.92465 15.4041 3.92749 15.4013 3.93039L15.4006 3.93042Z" fill="#FFC107"/>
<path d="M7.99574 12.1766C7.95003 12.1766 7.90476 12.1677 7.8625 12.1503C7.82025 12.1329 7.78185 12.1073 7.74949 12.075L0.0976384 4.42313C-0.0358232 4.28498 -0.0319755 4.06478 0.106182 3.93132C0.24098 3.80115 0.454655 3.80115 0.589421 3.93132L7.99571 11.3369L15.4013 3.93063C15.5348 3.79247 15.7549 3.78866 15.8931 3.92209C16.0313 4.05555 16.0351 4.27572 15.9017 4.4139C15.8989 4.41681 15.896 4.41964 15.8931 4.42245L8.24131 12.0743C8.17622 12.1396 8.08791 12.1763 7.99574 12.1766Z" fill="#555554"/>
</g>
</svg>
