<svg width="190" height="334" viewBox="0 0 190 334" fill="none" xmlns="http://www.w3.org/2000/svg">
<path d="M190 94V177.401C190 200.579 176.872 222.419 154.529 236.534L0 334V250.599C0 227.421 13.1284 205.581 35.4707 191.515L190 94Z" fill="#006DF9"/>
<path d="M190 65V148.401C190 171.579 176.872 193.419 154.529 207.534L0 305V221.599C0 198.421 13.1284 176.581 35.4707 162.515L190 65Z" fill="#006DF9" fill-opacity="0.68"/>
<path d="M190 36V119.401C190 142.579 176.872 164.419 154.529 178.534L0 276V192.599C0 169.421 13.1284 147.581 35.4707 133.515L190 36Z" fill="#006DF9" fill-opacity="0.5"/>
<path d="M190 0V83.4007C190 106.579 176.872 128.419 154.529 142.534L0 240V156.599C0 133.421 13.1284 111.581 35.4707 97.5155L190 0Z" fill="#006DF9" fill-opacity="0.2"/>
</svg>
