<svg width="32" height="33" viewBox="0 0 32 33" fill="none" xmlns="http://www.w3.org/2000/svg">
<g id="Search results for Customer - Flaticon-11 1">
<g id="Group">
<path id="Vector" d="M15.998 13.8002C18.6257 13.8002 20.7558 11.6701 20.7558 9.04246C20.7558 6.4148 18.6257 4.28467 15.998 4.28467C13.3704 4.28467 11.2402 6.4148 11.2402 9.04246C11.2402 11.6701 13.3704 13.8002 15.998 13.8002Z" fill="white"/>
<path id="Vector_2" d="M25.623 13.8003C27.2842 13.8003 28.6308 12.4536 28.6308 10.7925C28.6308 9.13131 27.2842 7.78467 25.623 7.78467C23.9619 7.78467 22.6152 9.13131 22.6152 10.7925C22.6152 12.4536 23.9619 13.8003 25.623 13.8003Z" fill="white"/>
<path id="Vector_3" d="M6.37303 13.8003C8.03419 13.8003 9.38083 12.4536 9.38083 10.7925C9.38083 9.13131 8.03419 7.78467 6.37303 7.78467C4.71187 7.78467 3.36523 9.13131 3.36523 10.7925C3.36523 12.4536 4.71187 13.8003 6.37303 13.8003Z" fill="white"/>
<path id="Vector_4" d="M9.33848 16.5016C8.1545 15.5315 7.08225 15.6599 5.71326 15.6599C3.66577 15.6599 2 17.3159 2 19.3508V25.3232C2 26.2069 2.72132 26.9255 3.60835 26.9255C7.43788 26.9255 6.97654 26.9948 6.97654 26.7603C6.97654 22.5283 6.47528 19.4248 9.33848 16.5016Z" fill="white"/>
<path id="Vector_5" d="M17.3037 15.6812C14.9125 15.4818 12.8342 15.6835 11.0415 17.1633C8.04148 19.5662 8.61881 22.8017 8.61881 26.7598C8.61881 27.807 9.47084 28.6749 10.534 28.6749C22.0774 28.6749 22.5369 29.0473 23.2214 27.5314C23.4459 27.0188 23.3844 27.1817 23.3844 22.2776C23.3844 18.3825 20.0116 15.6812 17.3037 15.6812ZM26.2883 15.6594C24.9118 15.6594 23.8454 15.5323 22.663 16.501C25.5049 19.4025 25.025 22.2943 25.025 26.7598C25.025 26.9957 24.642 26.9249 28.3357 26.9249C29.2545 26.9249 30.0015 26.1806 30.0015 25.2657V19.3502C30.0015 17.3153 28.3357 15.6594 26.2883 15.6594Z" fill="white"/>
</g>
</g>
</svg>
