<svg width="32" height="33" viewBox="0 0 32 33" fill="none" xmlns="http://www.w3.org/2000/svg">
<g id="Search results for Increase customers - Flaticon-11 1">
<g id="Group">
<path id="Vector" d="M7 18.5C8.65685 18.5 10 17.1569 10 15.5C10 13.8431 8.65685 12.5 7 12.5C5.34315 12.5 4 13.8431 4 15.5C4 17.1569 5.34315 18.5 7 18.5Z" fill="white"/>
<path id="Vector_2" d="M3 23.5H11C11.2652 23.5 11.5196 23.3946 11.7071 23.2071C11.8946 23.0196 12 22.7652 12 22.5V21.5C12 19.846 10.654 18.5 9 18.5H5C3.346 18.5 2 19.846 2 21.5V22.5C2 22.7652 2.10536 23.0196 2.29289 23.2071C2.48043 23.3946 2.73478 23.5 3 23.5Z" fill="white"/>
<path id="Vector_3" d="M16 13.5C17.6569 13.5 19 12.1569 19 10.5C19 8.84315 17.6569 7.5 16 7.5C14.3431 7.5 13 8.84315 13 10.5C13 12.1569 14.3431 13.5 16 13.5Z" fill="white"/>
<path id="Vector_4" d="M12 18.5H20C20.2652 18.5 20.5196 18.3946 20.7071 18.2071C20.8946 18.0196 21 17.7652 21 17.5V16.5C21 14.846 19.654 13.5 18 13.5H14C12.346 13.5 11 14.846 11 16.5V17.5C11 17.7652 11.1054 18.0196 11.2929 18.2071C11.4804 18.3946 11.7348 18.5 12 18.5Z" fill="white"/>
<path id="Vector_5" d="M25 8.5C26.6569 8.5 28 7.15685 28 5.5C28 3.84315 26.6569 2.5 25 2.5C23.3431 2.5 22 3.84315 22 5.5C22 7.15685 23.3431 8.5 25 8.5Z" fill="white"/>
<path id="Vector_6" d="M27 8.5H23C21.346 8.5 20 9.846 20 11.5V12.5C20 12.7652 20.1054 13.0196 20.2929 13.2071C20.4804 13.3946 20.7348 13.5 21 13.5H29C29.2652 13.5 29.5196 13.3946 29.7071 13.2071C29.8946 13.0196 30 12.7652 30 12.5V11.5C30 9.846 28.654 8.5 27 8.5ZM29 28.5H28V15.5C28 15.2348 27.8946 14.9804 27.7071 14.7929C27.5196 14.6054 27.2652 14.5 27 14.5H23C22.7348 14.5 22.4804 14.6054 22.2929 14.7929C22.1054 14.9804 22 15.2348 22 15.5V28.5H19V20.5C19 20.2348 18.8946 19.9804 18.7071 19.7929C18.5196 19.6054 18.2652 19.5 18 19.5H14C13.7348 19.5 13.4804 19.6054 13.2929 19.7929C13.1054 19.9804 13 20.2348 13 20.5V28.5H10V25.5C10 25.2348 9.89464 24.9804 9.70711 24.7929C9.51957 24.6054 9.26522 24.5 9 24.5H5C4.73478 24.5 4.48043 24.6054 4.29289 24.7929C4.10536 24.9804 4 25.2348 4 25.5V28.5H3C2.73478 28.5 2.48043 28.6054 2.29289 28.7929C2.10536 28.9804 2 29.2348 2 29.5C2 29.7652 2.10536 30.0196 2.29289 30.2071C2.48043 30.3946 2.73478 30.5 3 30.5H29C29.2652 30.5 29.5196 30.3946 29.7071 30.2071C29.8946 30.0196 30 29.7652 30 29.5C30 29.2348 29.8946 28.9804 29.7071 28.7929C29.5196 28.6054 29.2652 28.5 29 28.5Z" fill="white"/>
</g>
</g>
</svg>
