<svg width="459" height="689" viewBox="0 0 459 689" fill="#B9BFCB" xmlns="http://www.w3.org/2000/svg">
<g style="mix-blend-mode:luminosity" opacity="0.1">
<path d="M229.348 458.939C355.991 458.939 458.696 356.194 458.696 229.501C458.759 102.745 356.054 0 229.348 0V458.939Z" fill="#B9BFCB"/>
<path d="M199.282 0.0673828V106.54C199.282 136.112 185.512 163.979 162.078 181.924L0 306.343V199.933C0 170.361 13.7697 142.495 37.2035 124.549L199.282 0.0673828Z" fill="#B9BFCB"/>
<path d="M199.282 191.526V297.873C199.282 327.445 185.512 355.311 162.078 373.257L0 497.675V391.392C0 361.82 13.7697 333.954 37.2035 315.945L199.282 191.526Z" fill="#B9BFCB"/>
<path d="M199.282 382.788V489.198C199.282 518.77 185.512 546.636 162.078 564.645L0 689V582.59C0 553.018 13.7697 525.152 37.2035 507.206L199.282 382.788Z" fill="#B9BFCB"/>
</g>
</svg>
 