<svg width="83" height="64" viewBox="0 0 83 64" fill="none" xmlns="http://www.w3.org/2000/svg">
<path d="M7.42451 58.8235C2.78419 53.6471 0 48 0 38.5882C0 22.1176 11.6008 7.52941 27.8419 0L32.0182 6.11765C16.7052 14.5882 13.4569 25.4118 12.5289 32.4706C14.849 31.0588 18.0973 30.5882 21.3455 31.0588C29.6981 32 36.1945 38.5882 36.1945 47.5294C36.1945 51.7647 34.3384 56 31.5542 59.2941C28.306 62.5882 24.5937 64 19.9534 64C14.849 64 10.2087 61.6471 7.42451 58.8235ZM53.8277 58.8235C49.1874 53.6471 46.4032 48 46.4032 38.5882C46.4032 22.1176 58.004 7.52941 74.2451 0L78.4214 6.11765C63.1084 14.5882 59.8602 25.4118 58.9321 32.4706C61.2523 31.0588 64.5005 30.5882 67.7487 31.0588C76.1013 32 82.5977 38.5882 82.5977 47.5294C82.5977 51.7647 80.7416 56 77.9574 59.2941C75.1732 62.5882 70.9969 64 66.3566 64C61.2522 64 56.6119 61.6471 53.8277 58.8235Z" fill="white"/>
</svg>
