<svg width="32" height="33" viewBox="0 0 32 33" fill="none" xmlns="http://www.w3.org/2000/svg">
<g id="Search results for Service - Flaticon-11 1">
<g id="Group">
<path id="Vector" d="M18.9567 19.8385C20.7873 18.7998 22.0393 16.8545 22.0393 14.6038C22.0393 11.2732 19.3287 8.5625 15.998 8.5625C12.6673 8.5625 9.95802 11.2732 9.95802 14.6038C9.95802 16.8545 11.21 18.7998 13.0407 19.8385C11.6008 20.4268 10.3685 21.4301 9.50046 22.7208C8.63243 24.0114 8.16792 25.5311 8.16602 27.0865V27.8332C8.16602 28.01 8.23625 28.1795 8.36128 28.3046C8.4863 28.4296 8.65587 28.4998 8.83268 28.4998H23.1633C23.3402 28.4998 23.5097 28.4296 23.6348 28.3046C23.7598 28.1795 23.83 28.01 23.83 27.8332V27.0865C23.8282 25.5312 23.3639 24.0117 22.4961 22.721C21.6283 21.4304 20.3963 20.427 18.9567 19.8385Z" fill="white"/>
<path id="Vector_2" d="M25.5035 11.4065C24.8408 9.41089 23.5655 7.67515 21.8591 6.44635C20.1528 5.21756 18.1023 4.55834 15.9995 4.56252C11.7141 4.56252 7.88081 7.35985 6.51015 11.3959C5.99379 11.568 5.54511 11.899 5.22827 12.3416C4.91144 12.7841 4.74268 13.3156 4.74615 13.8599V14.2332C4.74615 15.6665 5.91815 16.8332 7.35948 16.8332H8.83948C9.01629 16.8332 9.18586 16.7629 9.31088 16.6379C9.43591 16.5129 9.50615 16.3433 9.50615 16.1665V11.9132C9.50615 11.7364 9.43591 11.5668 9.31088 11.4418C9.18586 11.3168 9.01629 11.2465 8.83948 11.2465H7.99281C9.33815 8.06119 12.4915 5.89585 15.9995 5.89585C19.5515 5.89585 22.6595 8.02385 24.0061 11.2492H23.1648C22.988 11.2492 22.8184 11.3194 22.6934 11.4444C22.5684 11.5695 22.4981 11.739 22.4981 11.9159V16.1665C22.4981 16.3433 22.5684 16.5129 22.6934 16.6379C22.8184 16.7629 22.988 16.8332 23.1648 16.8332H24.6435C25.3339 16.8325 25.9958 16.5579 26.484 16.0697C26.9722 15.5815 27.2468 14.9196 27.2475 14.2292V13.8532C27.2457 13.315 27.0771 12.7907 26.7647 12.3524C26.4523 11.9142 26.0116 11.5837 25.5035 11.4065Z" fill="white"/>
</g>
</g>
</svg>
